<svg xmlns="http://www.w3.org/2000/svg" viewBox="0 0 32 32" fill="none" role="img" aria-label="Efficacy">
	<title>Efficacy</title>
	<style>
		.page { fill: #f4efe6; stroke: #2c241c; }
		.fold { fill: #d9d0c0; stroke: #2c241c; }
		.ink { stroke: #2c241c; }
		.link { fill: #2c241c; }
		.seal { fill: #c4a035; stroke: #2c241c; }
		@media (prefers-color-scheme: dark) {
			.page { fill: #1a1612; stroke: #e4d6c4; }
			.fold { fill: #12100e; stroke: #e4d6c4; }
			.ink { stroke: #e4d6c4; }
			.link { fill: #e4d6c4; }
			.seal { fill: #e0c15a; stroke: #e4d6c4; }
		}
	</style>

	<path class="page" stroke-width="1.15" stroke-linejoin="round" d="M3.5 3.5h14.2L26.5 12.3V28.5H3.5z" />
	<path class="fold" stroke-width="1.15" stroke-linejoin="round" d="M17.7 3.5v8.8h8.8z" />

	<g class="ink" stroke-width="1.15" stroke-linecap="round">
		<line x1="6.5" y1="13.2" x2="18" y2="13.2" />
		<line x1="6.5" y1="16.6" x2="14.2" y2="16.6" opacity="0.55" />
	</g>

	<path
		class="seal"
		fill-rule="evenodd"
		stroke-width="1"
		stroke-linejoin="round"
		d="M20.2 18.2a5.6 5.6 0 1 0 0.01 0z M18.6 21.6h3.2a2.1 2.1 0 0 1 0 4.2h-3.2a2.1 2.1 0 0 1 0-4.2z"
	/>
	<path
		class="link"
		fill-rule="evenodd"
		d="M9.2 21.4h4.2a2.6 2.6 0 0 1 0 5.2H9.2a2.6 2.6 0 0 1 0-5.2z M10.5 22.7h1.6a1.3 1.3 0 0 1 0 2.6h-1.6a1.3 1.3 0 0 1 0-2.6z"
	/>
</svg>
